<?xml version="1.0" encoding="UTF-8" standalone="no"?>
<!-- Created with Inkscape (http://www.inkscape.org/) -->

<svg
   xmlns:dc="http://purl.org/dc/elements/1.1/"
   xmlns:cc="http://creativecommons.org/ns#"
   xmlns:rdf="http://www.w3.org/1999/02/22-rdf-syntax-ns#"
   xmlns:svg="http://www.w3.org/2000/svg"
   xmlns="http://www.w3.org/2000/svg"
   xmlns:sodipodi="http://sodipodi.sourceforge.net/DTD/sodipodi-0.dtd"
   xmlns:inkscape="http://www.inkscape.org/namespaces/inkscape"
   width="199.96434"
   height="214.75906"
   id="svg3149"
   version="1.1"
   inkscape:version="0.48.4 r9939"
   sodipodi:docname="Karachi.svg">
  <defs
     id="defs3151" />
  <sodipodi:namedview
     id="base"
     pagecolor="#ffffff"
     bordercolor="#666666"
     borderopacity="1.0"
     inkscape:pageopacity="0.0"
     inkscape:pageshadow="2"
     inkscape:zoom="5.6"
     inkscape:cx="80.514811"
     inkscape:cy="49.765187"
     inkscape:document-units="px"
     inkscape:current-layer="layer2"
     showgrid="false"
     fit-margin-top="0"
     fit-margin-left="0"
     fit-margin-right="0"
     fit-margin-bottom="0"
     inkscape:window-width="1366"
     inkscape:window-height="716"
     inkscape:window-x="-8"
     inkscape:window-y="-8"
     inkscape:window-maximized="1" />
  <metadata
     id="metadata3154">
    <rdf:RDF>
      <cc:Work
         rdf:about="">
        <dc:format>image/svg+xml</dc:format>
        <dc:type
           rdf:resource="http://purl.org/dc/dcmitype/StillImage" />
        <dc:title />
      </cc:Work>
    </rdf:RDF>
  </metadata>
  <g
     inkscape:label="sketch"
     inkscape:groupmode="layer"
     id="layer1"
     transform="translate(-134.31034,-84.005034)"
     style="display:inline">
    <path
       style="fill:#000000"
       d="m 210.9893,292.81138 c -4.67145,-4.35751 -7.20205,-7.60504 -8.18888,-10.50884 -2.44364,-7.19054 -8.10454,-14.85105 -15.22711,-20.60583 -6.13477,-4.95666 -7.64854,-5.68052 -14.64014,-7.00067 -4.28884,-0.80982 -7.95734,-1.63408 -8.15222,-1.8317 -0.19489,-0.19762 -0.10689,-1.64772 0.19556,-3.22244 0.52009,-2.70794 0.76978,-2.83364 4.60643,-2.31904 5.34532,0.71696 6.64331,-0.10828 12.58712,-8.00268 l 5.0207,-6.66834 -2.22038,-1.55964 c -1.53887,-1.08093 -3.93504,-1.46178 -7.80681,-1.24081 -11.70716,0.66813 -16.72751,-2.73047 -17.07341,-11.55809 -0.1268,-3.23621 -0.82376,-4.32178 -4.77652,-7.43993 -4.48178,-3.53545 -4.73339,-3.60656 -7.96066,-2.24959 -4.38435,1.84348 -4.76844,1.78851 -5.43972,-0.77843 -0.43854,-1.67698 0.62316,-3.4073 4.60339,-7.50245 2.84536,-2.92752 5.94947,-5.56908 6.89801,-5.87013 1.35738,-0.43082 -0.0382,-2.29352 -6.55377,-8.74756 -7.75407,-7.68081 -13.29043,-14.40146 -12.46998,-15.13745 0.1975,-0.17717 2.73862,-1.51748 5.64694,-2.97846 2.97148,-1.49271 5.77387,-3.72301 6.39734,-5.09137 0.66074,-1.45017 2.56662,-2.90007 4.71215,-3.58478 5.32339,-1.69887 5.91423,-2.72925 2.28954,-3.99282 -2.42419,-0.84507 -3.18688,-1.70294 -3.18688,-3.58455 0,-1.36049 -0.67914,-3.15274 -1.50919,-3.9828 -1.64772,-1.64772 -1.15494,-3.34795 0.97034,-3.34795 1.11063,0 1.12555,-0.73563 0.0862,-4.25 -0.69132,-2.3375 -1.51039,-6.79519 -1.82018,-9.90598 l -0.56324,-5.65598 6.35955,1.81867 c 3.90757,1.11746 7.92434,1.60879 10.41804,1.27431 l 4.0585,-0.54436 0,6.15311 c 0,4.97206 0.50536,6.91677 2.63289,10.13167 1.44808,2.18821 3.32863,3.97856 4.179,3.97856 0.85036,0 3.06869,0.55057 4.92961,1.22349 3.28747,1.18876 3.48151,1.11071 6.83711,-2.75 1.8995,-2.18542 4.14939,-5.24283 4.99978,-6.79425 1.25594,-2.29131 1.81602,-2.5968 2.98388,-1.62756 1.22071,1.0131 1.43773,0.36187 1.43773,-4.31423 0,-7.07961 2.12079,-8.73357 11.21482,-8.74614 3.45685,-0.005 8.61757,-0.2889 11.46827,-0.63137 6.38875,-0.76752 7.48246,-2.756 6.96102,-12.65588 -0.30076,-5.71006 -0.78028,-7.23675 -3.00103,-9.55472 -2.87624,-3.002136 -3.5559,-7.149336 -1.17167,-7.149336 0.81869,0 1.8426,-1.43249 2.30819,-3.22926 0.63666,-2.45694 1.54036,-3.38932 3.77859,-3.89848 1.618,-0.36808 5.08577,-1.16491 7.70616,-1.77074 2.62039,-0.60584 7.6236,-1.10152 11.11823,-1.10152 l 6.35387,0 1.73658,6.18912 c 0.95512,3.40402 1.97745,10.560436 2.27185,15.903146 l 0.53527,9.71403 8.60993,1.57606 c 4.73545,0.86684 11.98492,2.03407 16.10992,2.59385 4.125,0.55979 13.575,2.62542 21,4.59031 7.425,1.96488 17.1,4.50825 21.5,5.65192 4.4,1.14368 8.56534,2.36938 9.25632,2.72378 0.85944,0.4408 -0.33187,2.42627 -3.77101,6.2849 -2.76504,3.1023 -5.69733,7.53952 -6.51622,9.86048 -0.81888,2.32096 -3.48093,6.55165 -5.91566,9.40154 -3.59719,4.21056 -4.82004,6.72183 -6.52524,13.40047 -1.31044,5.13247 -1.86081,9.48571 -1.46559,11.59239 0.51313,2.73521 0.0668,4.19136 -2.35863,7.69577 -1.64533,2.37722 -4.16431,5.41317 -5.59774,6.74654 -3.8808,3.60992 -3.60873,9.35573 0.6832,14.42813 3.03706,3.58933 3.8385,3.94651 11.73512,5.23 4.6615,0.75767 9.91139,1.38657 11.66643,1.39757 3.97038,0.0249 4.57651,0.95421 3.19922,4.90512 -0.809,2.32068 -1.69832,3.11487 -3.48803,3.11487 -2.0273,0 -2.40217,0.49106 -2.40217,3.14674 l 0,3.14673 -7.65088,-0.64673 c -4.20798,-0.35571 -8.83596,-0.64674 -10.28439,-0.64674 -1.90349,0 -3.17541,-0.90092 -4.58835,-3.25 l -1.95483,-3.25 -0.54628,3.5 c -0.30045,1.925 -0.21498,5.07427 0.18994,6.99838 0.63606,3.02249 0.24418,4.21279 -2.88072,8.75 -1.98931,2.88839 -3.74595,5.25162 -3.90365,5.25162 -0.15771,0 -1.43239,-0.522 -2.83264,-1.15999 -3.6772,-1.67545 -12.93252,0.64107 -14.53664,3.63838 -1.62523,3.03677 -9.37664,6.60059 -15.79797,7.26333 l -5.34082,0.55122 0.68139,8.7102 0.68138,8.71021 -4.85357,0.54706 c -4.88426,0.55053 -11.02663,-1.4083 -9.93825,-3.16935 0.28002,-0.45307 -0.38027,-1.62865 -1.4673,-2.6124 -1.08703,-0.98375 -1.97642,-2.42422 -1.97642,-3.20104 0,-0.93664 -0.64534,-1.20757 -1.91584,-0.80433 -2.89793,0.91977 -3.34961,-0.43564 -4.73988,-14.22329 -0.52392,-5.19581 -0.56434,-5.25 -3.91651,-5.25 -2.93919,0 -3.6543,0.52371 -5.40745,3.96016 -3.42573,6.71499 -2.24889,11.63367 4.61595,19.29272 1.85005,2.06409 3.36373,4.21272 3.36373,4.77475 0,0.56203 1.07212,1.42949 2.38249,1.92769 1.644,0.62505 2.55178,1.93473 2.92865,4.22525 0.30039,1.82569 0.84598,4.50593 1.21242,5.95609 0.58385,2.31052 0.10438,3.02324 -3.87618,5.76194 -2.603,1.79091 -6.37941,3.35772 -8.84491,3.66968 -4.17044,0.5277 -4.50994,0.35088 -11.06317,-5.76193 z m 19.40814,1.47738 c 2.11891,-1.40223 3.85479,-2.8272 3.85751,-3.16662 0.013,-1.62896 -3.49574,-10.11711 -4.18217,-10.11711 -0.43017,0 -1.64748,-1.6875 -2.70514,-3.75 -1.05765,-2.0625 -3.13455,-4.875 -4.61534,-6.25 -4.38328,-4.07016 -5.2135,-6.85241 -5.96797,-20 -0.4582,-7.98468 -1.19317,-13.04184 -2.03465,-14 -0.72453,-0.825 -1.47086,-2.57904 -1.6585,-3.89787 -0.49021,-3.44533 -3.57066,-5.12326 -5.25319,-2.86144 -1.22367,1.64499 -1.38999,1.63558 -3.02506,-0.17116 -0.9656,-1.06697 -1.62337,-3.16195 -1.48844,-4.74069 0.31455,-3.6806 -1.992,-8.4359 -4.00009,-8.24679 -4.30625,0.40552 -6.25139,-0.41966 -9.99742,-4.24119 -2.24234,-2.28752 -4.07698,-4.53752 -4.07698,-5 0,-0.46247 -0.42171,-0.84086 -0.93713,-0.84086 -0.51542,0 -0.684,1.55987 -0.37461,3.46639 0.55957,3.44823 0.51198,3.49889 -9.08821,9.67466 -6.88379,4.42832 -9.3425,6.51658 -8.57569,7.28361 0.59127,0.59144 4.66417,1.10856 9.05088,1.14916 6.32487,0.0585 8.52759,0.48575 10.64136,2.06391 l 2.66553,1.99011 -5.71641,7.16446 c -6.69379,8.38943 -8.44454,9.52742 -13.26599,8.62291 -3.3357,-0.62578 -3.54997,-0.5134 -3.23598,1.6971 0.2055,1.44678 1.11392,2.48844 2.33625,2.67891 10.46897,1.63135 12.30499,2.41129 19.56884,8.31279 7.5648,6.146 13.76148,14.61912 16.01328,21.89599 0.66684,2.15495 3.4532,5.71541 7.25047,9.26477 5.99583,5.6044 6.28975,5.74814 10.56485,5.16662 2.41859,-0.32899 6.13109,-1.74543 8.25,-3.14766 z m 19.97028,-17.28373 2.95414,0 -0.66853,-8.85583 -0.66852,-8.85583 6.30886,-0.71377 c 7.22479,-0.81739 13.22161,-3.52362 15.49434,-6.99224 0.86199,-1.31556 2.66857,-2.66835 4.01462,-3.00618 1.70165,-0.42709 2.44737,-1.30926 2.44737,-2.8952 0,-1.25452 0.5625,-2.85279 1.25,-3.55171 1.00797,-1.02471 0.70763,-1.13678 -1.55111,-0.57877 -1.97277,0.48736 -3.15564,0.23752 -4,-0.84487 -0.65939,-0.84529 -2.09361,-1.69249 -3.18715,-1.88267 -2.04839,-0.35626 -2.90794,-3.73807 -6.49981,-25.57293 -1.13265,-6.88535 -1.3264,-7.24981 -3.85228,-7.24626 -1.46281,0.002 -4.13303,0.90205 -5.93382,2 -1.80079,1.09794 -4.36174,1.99626 -5.69098,1.99626 -1.32925,0 -2.69493,0.45 -3.03485,1 -0.33992,0.55 -3.5344,1 -7.09886,1 -8.16105,0 -14.11284,2.70123 -14.8995,6.76216 -0.2917,1.50581 -1.23715,4.76284 -2.10101,7.23784 -0.86386,2.475 -2.05821,6.4125 -2.65412,8.75 -0.60785,2.38435 -1.6802,4.25 -2.44284,4.25 -1.07721,0 -1.22142,1.40109 -0.69479,6.75 0.36552,3.7125 0.8112,6.92065 0.99041,7.12923 0.17921,0.20857 0.86491,-0.80393 1.52378,-2.25 1.02563,-2.25101 1.82221,-2.62923 5.53745,-2.62923 l 4.33948,0 0,4.53212 c 0,2.49266 0.64025,6.06445 1.42278,7.9373 0.78252,1.87285 1.17395,4.35667 0.86984,5.5196 -0.48672,1.86121 -0.23797,2.03537 2.07722,1.45429 1.93658,-0.48605 2.63016,-0.27686 2.63016,0.79329 0,0.79939 0.91095,2.27782 2.02433,3.28542 1.11338,1.0076 1.85438,2.31484 1.64665,2.90499 -0.48188,1.36904 3.40294,3.6579 5.16081,3.04064 0.73248,-0.25721 2.66115,-0.46765 4.28593,-0.46765 z m 44.69556,-33.30102 c 2.38866,-3.53271 2.71511,-4.75434 2.05737,-7.69898 -0.42998,-1.925 -0.53928,-4.31011 -0.24288,-5.30024 1.06459,-3.55637 0.50675,-10.32308 -1.20337,-14.5971 l -1.74227,-4.35435 -5.79823,0.60604 c -5.02905,0.52564 -5.98035,0.34603 -7.17103,-1.35389 -1.57044,-2.24213 -15.17359,-5.67735 -14.42219,-3.64206 0.2318,0.62788 1.48664,7.5541 2.78852,15.3916 1.93307,11.63731 2.6704,14.25 4.02149,14.25 0.90993,0 2.21462,0.675 2.89931,1.5 0.68469,0.825 2.76479,1.5 4.62244,1.5 3.26561,0 4.43429,1.22887 2.37756,2.5 -0.55,0.33992 -1,1.46138 -1,2.49213 0,1.44098 0.70407,1.85409 3.0465,1.78748 1.67557,-0.0476 3.54761,0.4145 4.16008,1.02697 1.4613,1.4613 2.21426,0.90967 5.6067,-4.1076 z m -74.51835,-11.96236 c 4.23601,-12.3584 4.25052,-13.22561 0.31107,-18.59222 -1.95682,-2.66572 -5.31355,-6.00863 -7.45941,-7.42869 l -3.90155,-2.58193 -2.68493,4.93311 c -1.47671,2.71321 -2.89978,4.93311 -3.16236,4.93311 -0.26258,0 -2.24157,-0.9 -4.39775,-2 -3.99446,-2.03782 -8.49551,-2.6253 -9.36277,-1.22204 -0.26444,0.42788 0.33899,1.86478 1.34096,3.19313 1.38621,1.83774 2.82533,2.44035 6.01924,2.52048 3.06201,0.0768 4.48526,0.63323 5.26134,2.05687 0.58513,1.07336 1.66925,2.31309 2.40916,2.75495 0.98176,0.58629 1.07328,1.31165 0.33868,2.68426 -0.55364,1.03448 -1.00661,2.78389 -1.00661,3.88759 0,2.28254 2.1783,4.08985 2.77432,2.30181 1.06332,-3.18997 7.22568,0.48686 7.22568,4.31127 0,2.58977 0.77258,3.51642 2.91667,3.4983 1.00947,-0.009 2.23388,-1.91133 3.37826,-5.25 z M 322.25,229.00503 c 0,-2.47844 0.40672,-3 2.33948,-3 1.53656,0 2.73779,-0.87417 3.5,-2.54705 1.5796,-3.46683 1.5879,-3.45312 -2.08948,-3.45167 -1.7875,7e-4 -6.98734,-0.52097 -11.5552,-1.15927 -8.03871,-1.1233 -8.43178,-1.30434 -12.25,-5.64206 -3.25073,-3.69302 -3.9448,-5.21785 -3.9448,-8.66643 0,-3.22257 0.5993,-4.74236 2.60623,-6.60921 1.43343,-1.33337 3.92909,-4.33541 5.5459,-6.67119 2.35116,-3.39669 2.81573,-4.90751 2.3206,-7.54681 -0.38129,-2.03244 0.20877,-6.54226 1.53624,-11.74145 1.74133,-6.8201 2.97493,-9.40416 6.42241,-13.4532 2.3469,-2.75641 4.85156,-6.81166 5.5659,-9.01166 0.71434,-2.2 3.50784,-6.42684 6.20778,-9.39298 2.69994,-2.96614 4.54395,-5.75801 4.0978,-6.20416 -0.44614,-0.44614 -4.6343,-1.77322 -9.30702,-2.94905 -4.67271,-1.17582 -13.60369,-3.4911 -19.84661,-5.14506 -6.24293,-1.65396 -11.73261,-2.62505 -12.19931,-2.15798 -2.59009,2.59223 -21.77247,33.90327 -20.94158,34.18256 1.51651,0.50976 1.18276,3.44882 -0.69627,6.13152 -1.19709,1.70908 -1.34249,2.52501 -0.5,2.80584 1.68553,0.56184 1.4741,3.18227 -0.31207,3.86768 -0.825,0.31659 -1.5,1.37236 -1.5,2.34617 0,0.97382 -0.6963,2.34845 -1.54733,3.05474 -2.82179,2.34188 0.46607,2.78219 7.41944,0.99362 3.66496,-0.94272 7.63846,-2.23578 8.82999,-2.87347 2.85089,-1.52575 2.97654,-1.49631 3.58765,0.84057 0.41638,1.59224 1.36401,2 4.64802,2 5.68445,0 6.27419,2.13286 1.88589,6.82055 -1.89445,2.0237 -5.30216,6.21106 -7.57268,9.30525 l -4.12823,5.6258 3.83251,1.72822 c 4.31815,1.94722 11.79186,9.2362 11.81214,11.52018 0.0181,2.03879 3.04106,10.71152 5.22838,15 1.7217,3.37557 2.02903,3.52039 8.64469,4.07341 13.28335,1.11041 12.35953,1.26539 12.35953,-2.07341 z m -140.53213,-18.6719 c -0.0177,-2.10545 0.37218,-4.11201 0.86633,-4.45902 0.52481,-0.36852 0.49175,-1.35767 -0.0795,-2.37841 -0.65977,-1.17895 -1.20485,-1.38037 -1.67535,-0.61909 -0.86284,1.39612 -6.23565,1.49358 -7.07936,0.12842 -0.85198,-1.37853 -2.77393,-1.2514 -4.93142,0.3262 -2.32248,1.69823 -1.27228,5.6738 1.49881,5.6738 2.56217,0 2.50227,0.28915 -1.56739,7.56638 -1.925,3.44223 -3.5,6.73992 -3.5,7.32821 0,0.58829 3.7125,-1.36219 8.25,-4.33439 7.97769,-5.22563 8.24894,-5.53035 8.21787,-9.2321 z m -15.05394,7.25942 c 1.97234,-3.52687 3.58607,-6.62439 3.58607,-6.88337 0,-0.25899 -0.9,-0.70624 -2,-0.9939 -1.24386,-0.32528 -2,-1.36401 -2,-2.74747 0,-2.00457 -0.36385,-2.16542 -3.68075,-1.62716 -2.02441,0.32851 -4.35606,1.27262 -5.18145,2.09801 -1.33427,1.33427 -1.20332,1.7763 1.18075,3.98579 1.91483,1.77461 2.68145,3.47599 2.68145,5.95104 0,3.19392 0.78819,6.62954 1.52092,6.62954 0.16882,0 1.92068,-2.88562 3.89301,-6.41248 z M 232.25,211.51559 c 0.825,-0.68654 5.55,-1.49807 10.5,-1.80339 7.25485,-0.44749 9.93164,-1.07714 13.80462,-3.24718 l 4.80462,-2.69204 8.69538,1.74214 c 6.40445,1.28315 9.27401,2.3658 10.89162,4.10929 2.10482,2.26862 2.40649,2.31334 7.24754,1.07443 l 5.05129,-1.29273 -3.74753,-3.59035 c -2.06115,-1.9747 -5.32254,-4.37217 -7.24754,-5.32772 -1.925,-0.95555 -3.63269,-1.85033 -3.79487,-1.98839 -0.16218,-0.13807 0.96282,-1.58607 2.5,-3.21779 5.86279,-6.22336 12.29487,-14.17833 12.29487,-15.20588 0,-0.58902 -1.76968,-1.07095 -3.93261,-1.07095 -3.1001,0 -4.07185,-0.4387 -4.59034,-2.07232 -0.46367,-1.4609 -1.14741,-1.86325 -2.31739,-1.36372 -5.9051,2.5212 -14.8107,4.30854 -18.76631,3.76637 -3.44178,-0.47175 -4.39335,-0.28925 -4.39335,0.84262 0,2.4497 -2.59274,5.19731 -4.28984,4.54607 -1.41508,-0.54302 -1.37917,-1.15279 0.34579,-5.87209 2.58528,-7.07304 1.21033,-8.22366 -4.09715,-3.42867 -2.81414,2.54241 -4.65927,3.5121 -5.79394,3.04497 -1.86326,-0.76708 -2.63913,-0.84724 -6.0087,-0.62076 -2.21087,0.14859 -2.30642,0.42959 -1.68424,4.95336 0.60882,4.42663 0.4647,4.90013 -1.87207,6.15073 -2.08852,1.11774 -2.80763,1.12589 -4.10814,0.0466 -1.19408,-0.991 -1.85727,-1.02756 -2.73409,-0.15074 -1.72254,1.7225 -2.75762,1.40631 -2.75762,-0.84242 0,-1.1 -0.45,-2 -1,-2 -0.55,0 -1,0.85186 -1,1.89301 0,1.04116 -0.675,2.15203 -1.5,2.46862 -0.825,0.31658 -1.5,1.26472 -1.5,2.10699 0,0.84226 -0.675,1.53138 -1.5,1.53138 -0.825,0 -1.5,0.675 -1.5,1.5 0,0.95649 0.96151,1.5 2.65361,1.5 1.83141,0 3.84538,1.29092 6.5,4.16639 4.57224,4.95263 4.74966,6.20789 1.09639,7.75726 -5.09689,2.16163 -6.69893,3.83049 -5.2978,5.51876 1.11014,1.33763 1.59907,1.3277 4.39839,-0.0893 1.73217,-0.87684 3.82441,-2.15597 4.64941,-2.84252 z m -25.89068,-5.01056 c 1.31299,-2.475 2.75694,-4.5 3.20879,-4.5 1.4986,0 9.43106,5.90396 10.03018,7.46526 0.80053,2.08612 2.47576,1.88802 6.86601,-0.81193 l 3.71431,-2.28425 -3.03711,-3.68454 c -2.46331,-2.98842 -3.71029,-3.68454 -6.60023,-3.68454 l -3.56312,0 0.6166,-4.4986 c 0.60296,-4.39904 0.52659,-4.55816 -3.45072,-7.19023 -3.32696,-2.20167 -4.37011,-2.47371 -5.73068,-1.49447 -6.72422,4.83961 -11.05641,7.14798 -13.44547,7.1643 -4.40295,0.0301 -9.60529,2.67779 -10.91671,5.55604 -1.03033,2.26132 -0.8743,3.26115 1.08538,6.95517 l 2.28868,4.3142 2.84504,-1.63283 c 2.68878,-1.54314 3.0822,-1.51377 7.16239,0.53476 2.37454,1.19217 4.81731,2.19551 5.42838,2.22963 0.61107,0.0341 2.1853,-1.96297 3.49828,-4.43797 z m -53.71506,1.02267 c 2.07955,1.36258 2.4401,1.28255 4.60528,-1.02218 1.292,-1.37527 3.28315,-2.51037 4.42477,-2.52245 1.14163,-0.0121 3.96133,-0.87805 6.266,-1.92439 3.59822,-1.6336 4.35735,-1.70115 5.37244,-0.47803 0.65018,0.78341 2.46789,1.42438 4.03937,1.42438 2.30742,0 3.23466,-0.73982 4.81862,-3.84465 1.68928,-3.31126 1.76547,-4.04057 0.54917,-5.25687 -0.98533,-0.98533 -1.61875,-5.27527 -2.09542,-14.19173 -0.37575,-7.02872 -0.95217,-12.94574 -1.28092,-13.14892 -0.56183,-0.34723 -7.83566,7.83022 -10.42084,11.71543 -1.10035,1.65368 -1.48705,1.66861 -5.73428,0.22144 -5.90243,-2.01117 -10.93845,-8.23103 -10.93845,-13.50982 0,-2.00835 -0.28417,-3.93571 -0.63148,-4.28303 -0.98431,-0.98431 -4.36852,1.19948 -4.36852,2.81894 0,0.79773 -2.71915,2.82304 -6.04255,4.50069 l -6.04255,3.05027 2.23541,3.21412 c 1.22947,1.76777 6.08611,6.97736 10.79254,11.57687 4.79248,4.6836 8.02831,8.56275 7.35508,8.81736 -3.42867,1.2967 -7.83622,5.1541 -8.11748,7.10426 -0.19172,1.32928 -1.02515,2.21564 -2.08333,2.21564 -2.38099,0 -2.97416,0.75418 -2.38005,3.02607 0.46512,1.77864 0.738,1.81063 3.96027,0.46428 3.03115,-1.2665 3.74079,-1.26249 5.71692,0.0323 z m 37.25998,-15.02267 c 1.97451,-0.825 4.79904,-1.5 6.27675,-1.5 3.64113,0 6.35126,-2.1009 5.51645,-4.27638 -0.73868,-1.92496 -2.0118,-2.23752 -2.94744,-0.72362 -0.33992,0.55 -1.77764,1 -3.19494,1 -2.47053,0 -2.55199,-0.18182 -1.97323,-4.40432 0.44409,-3.24001 0.21241,-4.72904 -0.87641,-5.63268 -1.02218,-0.84834 -1.16958,-1.60249 -0.47643,-2.43769 0.55201,-0.66513 0.70756,-1.50542 0.34567,-1.86732 -2.63749,-2.63749 -11.32458,3.14105 -11.32463,7.53299 -2e-5,1.48004 0.44997,2.9691 0.99997,3.30902 0.55,0.33992 1,2.54148 1,4.89235 0,6.13903 0.72352,6.58566 6.65424,4.10765 z m 32.31354,-3.5 c 0.56772,0 1.03222,-0.9 1.03222,-2 0,-1.33333 0.66667,-2 2,-2 1.17819,0 2,0.66667 2,1.62244 0,1.35214 0.25827,1.4081 1.55019,0.33591 1.27776,-1.06045 1.82907,-1.00766 3.13712,0.30039 1.19682,1.19681 2.00549,1.32555 3.28953,0.52365 1.33327,-0.83264 1.60416,-2.08766 1.24881,-5.7858 -0.42693,-4.44312 -0.29558,-4.76222 2.22016,-5.39363 1.47067,-0.36912 4.17502,-0.38952 6.00968,-0.0453 2.8633,0.53716 3.89242,0.12285 7.26641,-2.92535 3.62094,-3.2713 4.05815,-3.42366 5.54828,-1.93353 1.38263,1.38263 1.42825,1.99407 0.31405,4.20942 -1.7775,3.53417 -2.88512,8.39583 -1.75347,7.69643 0.501,-0.30964 1.18279,-1.92235 1.51508,-3.58379 0.45214,-2.26076 1.15677,-3.02084 2.80042,-3.02084 2.70841,0 5.85374,-2.71239 5.85374,-5.048 0,-0.95591 0.7875,-2.04371 1.75,-2.41733 1.54739,-0.60065 1.47203,-0.82907 -0.65083,-1.97289 -1.99212,-1.07338 -2.14465,-1.44409 -0.89598,-2.17768 2.51234,-1.47601 4.23839,-5.49316 2.75434,-6.41035 -1.70843,-1.05587 -1.57952,-1.30344 10.38149,-19.93697 5.81233,-9.05477 10.47558,-16.55552 10.36277,-16.66832 -0.1128,-0.11281 -4.02935,-0.71012 -8.70344,-1.32736 -4.67409,-0.61724 -12.14812,-1.82812 -16.60895,-2.69084 l -8.1106,-1.56859 -0.5346,-9.70171 c -0.29402,-5.33594 -1.32535,-12.519966 -2.29184,-15.964506 l -1.75725,-6.2628 -7.09756,0.41148 c -11.55041,0.66963 -19.59755,2.62456 -19.59755,4.76093 0,2.88025 -1.09767,4.97494 -2.60699,4.97494 -2.35354,0 -1.54748,3.47783 1.47785,6.376276 l 2.87086,2.75045 -0.35451,17.08983 c -0.28006,13.50083 -0.67295,17.4417 -1.87086,18.76537 -0.83399,0.92155 -1.52324,2.99012 -1.53166,4.59681 -0.008,1.60669 -0.41767,3.55688 -0.90944,4.33375 -0.59489,0.93976 -0.0401,3.15373 1.65754,6.61525 3.17702,6.47783 2.58803,9.76041 -2.26509,12.62382 -2.9638,1.74869 -3.4677,2.58382 -3.4677,5.74722 0,4.2142 -1.42055,6.10122 -4.59301,6.10122 -1.78485,0 -4.20821,2.67332 -3.18053,3.50858 0.15045,0.12228 2.18604,1.41351 4.52354,2.86942 2.87685,1.79183 4.27048,3.37 4.31339,4.88454 l 0.0634,2.23746 0.90439,-2.25 c 0.49742,-1.2375 1.36889,-2.25 1.93662,-2.25 z m -13.63542,-6.25 c 1.29739,-2.65517 2.47981,-3.75 4.05,-3.75 3.21959,0 4.61764,-1.88362 4.61764,-6.22144 0,-3.10578 0.46819,-4.03476 2.5,-4.96051 2.39742,-1.09234 3.51169,-3.81805 1.56082,-3.81805 -0.51655,0 -3.04858,-1.82567 -5.62674,-4.05705 l -4.68756,-4.05705 -3.46355,3.78132 c -1.90496,2.07973 -4.10948,5.0304 -4.89895,6.55705 -0.78946,1.52665 -2.01463,2.77573 -2.72261,2.77573 -0.70797,0 -2.56502,1.33373 -4.12677,2.96384 -2.34469,2.44733 -2.62237,3.22553 -1.59335,4.46542 0.82402,0.99289 1.01528,2.86835 0.56455,5.53615 -0.75922,4.49383 0.0725,5.01219 3.95772,2.46651 2.24184,-1.46891 2.46524,-1.43348 3.53229,0.56033 1.6222,3.03111 4.20667,2.11656 6.33651,-2.24225 z m -35.43782,-11.41886 c 2.967,-3.59394 4.97301,-6.8262 4.4578,-7.18279 -8.58492,-5.94187 -12.31738,-9.62255 -15.96686,-15.74535 -3.5537,-5.9621 -4.54675,-6.94607 -7.28562,-7.21902 -2.92758,-0.29174 -3.12338,-0.12585 -2.54963,2.16015 0.47218,1.8813 0.18045,2.58999 -1.21438,2.95001 -1.48715,0.38385 -1.40849,0.49589 0.41415,0.58986 2.19184,0.113 3.30924,2.116 1.18045,2.116 -2.16286,0 -0.46379,4.49526 1.82174,4.81984 1.23871,0.17591 2.71112,1.17735 3.27203,2.22542 0.85907,1.60519 0.61025,2.00838 -1.57849,2.55772 -2.49845,0.62707 -2.57152,0.84902 -1.90119,5.77458 0.38343,2.81734 1.60858,6.40934 2.72256,7.98221 2.00854,2.83595 6.84854,5.58785 9.7329,5.53388 0.825,-0.0154 3.92754,-2.96856 6.89454,-6.56251 z m 12.0537,1.21845 c 2.19517,-2.10311 3.07099,-2.33463 6.17953,-1.63354 3.25051,0.73311 3.94273,0.49733 6.7514,-2.29959 4.36767,-4.34943 12.12083,-14.12312 12.12083,-15.27963 0,-0.52839 -1.34735,-1.95685 -2.99411,-3.17436 l -2.99411,-2.21364 2.91441,-5.22441 c 2.63908,-4.73085 2.85109,-5.79127 2.24412,-11.22442 -0.66001,-5.90783 -0.72132,-6.0049 -3.99108,-6.31864 -1.82643,-0.17525 -4.35605,0.3597 -5.62139,1.18878 -2.02857,1.32917 -2.35287,2.50301 -2.74252,9.92683 -0.48369,9.21564 0.007,8.23175 -10.43493,20.92349 -6.05467,7.35921 -6.11434,7.49302 -5.62277,12.60884 0.27326,2.84389 0.75246,5.1707 1.06489,5.1707 0.31243,0 1.719,-1.10268 3.12573,-2.45041 z m 37.26822,-17.22599 c -2.10089,-4.22949 -1.95948,-11.69127 0.27144,-14.3236 0.6992,-0.825 1.48598,-5.03592 1.7484,-9.35759 l 0.47714,-7.85759 -3.60672,0.59658 c -1.9837,0.32812 -5.33004,0.60154 -7.43631,0.60759 l -3.8296,0.011 0.69278,6.46902 c 0.63394,5.91966 0.4585,6.86877 -2.06596,11.17643 l -2.75873,4.70741 2.64555,2.2756 c 1.45505,1.25159 2.64555,2.93029 2.64555,3.73046 0,1.58967 9.09338,9.64108 10.88878,9.64108 0.61117,0 1.18324,0.5625 1.27126,1.25 0.088,0.6875 0.33906,-0.17938 0.55787,-1.9264 0.23195,-1.85202 -0.39407,-4.77065 -1.50145,-7 z m -39.54066,4.9264 c 1.52766,-2.0625 4.72267,-6.07439 7.10002,-8.91532 4.33587,-5.18137 6.48514,-11.43733 4.37698,-12.74025 -0.58719,-0.3629 -1.73668,0.59239 -2.55441,2.12287 -0.81773,1.53049 -3.07851,4.48609 -5.02396,6.56801 -3.47753,3.7215 -3.58723,3.75943 -6.50614,2.25 -1.63293,-0.84442 -4.00382,-1.53612 -5.26863,-1.5371 -3.78525,-0.003 -7.79966,-7.39033 -7.79966,-14.35307 0,-4.24848 -0.35651,-5.64514 -1.44098,-5.64514 -0.79254,0 -1.69843,0.41655 -2.01309,0.92567 -0.33091,0.53544 -3.41089,0.11386 -7.30583,-1 -3.70355,-1.05912 -6.91017,-1.92567 -7.12581,-1.92567 -0.61417,0 0.60544,11.7375 1.34374,12.93209 0.363,0.58735 2.20012,1.06791 4.08249,1.06791 3.19918,0 3.69408,0.47304 7.58498,7.25 3.06085,5.33121 5.77852,8.49064 10.2685,11.93764 3.3583,2.5782 6.4206,4.7157 6.80511,4.75 0.38451,0.0343 1.94902,-1.62514 3.47669,-3.68764 z"
       id="karachi"
       inkscape:connector-curvature="0"
       inkscape:label="Karachi" />
  </g>
  <g
     inkscape:groupmode="layer"
     id="layer2"
     inkscape:label="shape"
     style="display:inline">
    <path
       style="fill:#ce99ff;fill-opacity:1"
       d="M 115.08524,0.91208255 C 107.83546,1.2193083 100.44843,1.6107491 93.509009,3.863622 92.190625,4.3624354 90.664474,5.1616531 90.720222,6.8194627 90.573961,8.6211375 89.853424,10.652863 87.858468,11.0215 c -1.761061,0.62134 -0.810974,2.797002 -0.110486,3.890666 1.268814,2.020675 3.119136,3.596477 4.798225,5.271733 -0.334062,10.900261 -0.201823,21.860239 -1.207448,32.711581 -0.604401,2.889799 -2.678203,5.323483 -2.667434,8.381109 -0.194665,2.359489 -1.564365,4.706909 -0.473509,7.055284 1.105075,3.40854 3.37184,6.699718 3.211969,10.346172 -0.333111,3.585223 -3.988182,4.982459 -6.329237,7.126311 -1.883279,1.787409 -0.937323,4.766632 -1.69674,7.023716 -0.412705,1.885311 -2.212448,2.976281 -4.057819,3.063568 -1.496716,0.293808 -3.279981,1.406951 -3.423624,3.021023 0.989734,1.785547 3.281665,2.449107 4.806117,3.685477 2.273337,1.43116 4.556247,3.56755 4.277365,6.49497 0.34282,0.60416 0.654123,-0.77173 0.797073,-0.9628 0.569569,-1.15077 1.0417,-2.77676 2.414896,-3.0936 1.28788,-0.96557 0.43837,-3.53601 2.328086,-3.81174 1.414459,-0.41804 2.473348,0.92453 2.367545,2.2176 0.829285,0.80087 1.849792,-0.72067 2.699001,-0.89178 1.13858,-0.31244 1.997353,1.19657 3.030458,1.5468 1.562504,0.96637 3.232404,-0.84645 3.779454,-2.0754 0.0566,-2.727813 -0.51118,-5.611412 0.0717,-8.262883 2.08215,-1.826747 5.22377,-0.940288 7.77332,-1.025858 2.29642,0.287353 4.66223,-0.256955 6.2945,-1.968974 1.68563,-1.181891 3.04472,-3.115293 5.0146,-3.721104 1.24148,0.183466 2.4308,1.429795 2.53327,2.683217 -0.85547,3.199542 -2.9005,6.256794 -2.84106,9.604341 0.65564,0.895921 1.41025,-0.697379 1.53102,-1.246907 0.70701,-1.423913 0.70836,-3.418447 1.94928,-4.47466 2.19186,-0.719163 4.7388,-0.944871 6.13638,-3.05033 1.36064,-1.449121 1.03624,-4.035519 3.03391,-4.94408 0.4587,-0.228858 1.46302,-0.596202 0.69448,-1.167989 -0.85111,-0.892657 -2.25257,-1.223363 -2.95154,-2.178141 1.62106,-1.77999 3.83008,-3.489426 3.93801,-6.116158 -0.26052,-1.132937 -1.7043,-2.042147 -0.98647,-3.322455 3.30853,-6.357042 7.49756,-12.28693 11.248,-18.415167 3.26591,-5.299657 6.85371,-10.461286 9.7758,-15.937912 -0.42778,-0.705399 -1.72813,-0.393464 -2.43581,-0.69228 -10.30288,-1.482795 -20.56565,-3.077139 -30.77296,-5.116097 -0.6268,-10.351057 -1.01705,-20.866286 -4.32846,-30.7845546 -0.013,-1.81058529 -1.84822,-0.7301808 -2.99514,-0.97211585 z"
       id="na253"
       inkscape:connector-curvature="0"
       inkscape:label="253" />
    <path
       style="fill:#ce99ff;fill-opacity:1"
       d="m 89.949799,39.708254 c -4.694387,0.850925 -9.507367,1.230106 -14.29208,1.167989 0.197408,3.902876 1.010506,8.003825 0.899667,12.003453 -0.694416,3.842997 -3.365742,7.03037 -4.987628,10.472441 2.152758,2.093819 4.655097,4.020718 5.745243,6.881664 2.384596,3.229733 5.59688,5.837977 8.846726,8.160139 0.888403,0.785759 2.374555,0.567486 2.796484,1.857337 0.665754,0.557796 0.693898,-1.276639 0.708938,-1.794029 0.331692,-3.208206 -0.936525,-6.161137 -2.005977,-9.099439 -0.95655,-3.124111 -0.8919,-6.569581 -0.291997,-9.746393 1.515574,-3.051777 2.524844,-6.340818 2.761418,-9.752395 0.27954,-3.403936 0.650381,-6.965889 0.545253,-10.29282 -0.242015,0.04735 -0.484031,0.0947 -0.726047,0.142053 z"
       id="na244"
       inkscape:connector-curvature="0"
       inkscape:label="244" />
    <path
       style="fill:#ce99ff;fill-opacity:1"
       d="m 69.628371,41.152456 c -2.996147,-0.146292 -6.41775,1.889629 -6.463398,5.137573 -0.823621,4.681065 -0.325607,9.584147 -1.673065,14.150027 -2.014572,4.371983 -5.597043,7.867983 -8.470786,11.724149 -2.114812,2.810878 -4.654375,5.414721 -6.255344,8.542037 -0.699718,3.088872 -0.05799,6.376007 0.473509,9.454396 0.06981,0.619734 0.730291,1.342011 1.246907,0.552428 2.279134,-1.520588 4.223129,-4.536649 7.321656,-3.804101 2.300001,0.375317 5.151789,0.985944 6.857398,-1.085081 4.810504,-4.769771 9.319981,-9.944838 13.016611,-15.623506 1.015176,-1.4215 -0.900174,-2.503466 -1.752448,-3.375842 -1.075274,-1.104945 -2.742824,-1.846815 -3.622344,-3.014674 1.701655,-3.951297 4.793376,-7.473443 5.208599,-11.8614 -0.0709,-3.156326 -0.192532,-6.434287 -1.246907,-9.42283 -0.786873,-1.830234 -3.058835,-1.210726 -4.640388,-1.373176 z"
       id="na245"
       inkscape:connector-curvature="0"
       inkscape:label="245" />
    <path
       style="fill:#ce99ff;fill-opacity:1"
       d="m 76.638131,71.830529 c -2.0336,2.10075 -4.02202,4.264858 -5.834264,6.5625 -1.258055,1.54092 -2.23376,3.285322 -3.345424,4.919085 -0.555102,0.787282 -1.282942,1.53007 -2.273995,1.679687 -1.843741,0.81788 -3.232633,2.369967 -4.608051,3.796535 -0.671862,0.782224 -1.64761,1.744248 -1.265275,2.877573 0.357533,0.841147 1.102884,1.536027 1.116071,2.51395 0.268356,1.992394 -0.189609,3.961041 -0.345982,5.934711 -0.02945,0.69314 0.02857,1.75384 0.873326,1.92522 1.186273,0.0436 2.195128,-0.75912 3.18412,-1.30824 0.762799,-0.42504 1.482334,-1.031851 2.351594,-1.211289 0.743413,0.181866 0.980667,1.070309 1.406027,1.619059 0.531329,0.88023 1.351672,1.87348 2.511384,1.70962 1.596938,-0.25932 2.597996,-1.71862 3.399993,-2.992137 0.912183,-1.591588 1.611377,-3.455497 3.254583,-4.435314 1.21298,-0.452996 2.634243,-0.199122 3.789062,-0.895647 1.599122,-0.89948 2.051358,-2.882336 2.128907,-4.581474 0.183247,-1.574021 -0.07916,-3.31523 0.764509,-4.720982 0.804624,-1.105124 2.271734,-1.354688 3.200334,-2.329799 0.612585,-0.616329 1.373295,-1.502163 1.08259,-2.441406 -0.303063,-0.680495 -1.204923,-0.477967 -1.71038,-0.906808 -3.456926,-2.21086 -6.388152,-5.147061 -9.584263,-7.717634 l -0.08929,0 -0.0056,0.0028 z"
       id="na246"
       inkscape:connector-curvature="0"
       inkscape:label="246" />
    <path
       style="fill:#ce99ff;fill-opacity:1"
       d="m 15.036801,41.942659 c -0.381434,0.08464 -0.148767,0.657295 -0.223214,0.931919 0.03505,3.802432 0.456347,7.600492 1.216518,11.322545 0.110062,0.941807 1.021256,1.482104 1.891741,1.607143 1.627592,0.430587 3.379528,0.145065 4.969308,0.672433 1.461461,0.687148 2.229342,2.216171 3.0877,3.508513 2.413001,3.945711 4.578389,8.163704 7.947456,11.413362 2.626893,2.779189 5.768379,4.980955 8.861607,7.204241 0.765415,0.476768 1.464702,1.130704 2.324219,1.417411 0.646503,-0.115003 1.048631,-0.74515 1.50463,-1.166064 2.509388,-2.941564 4.79041,-6.082654 7.255847,-9.063382 2.055025,-2.547643 4.22027,-5.054752 5.631264,-8.032273 0.85404,-1.839254 1.68258,-3.860605 1.436942,-5.929129 -0.05829,-0.740261 -0.706023,-1.663341 -1.534598,-1.328125 -1.208045,0.60795 -1.791494,1.951384 -2.512419,3.015688 -1.968235,2.937021 -4.254032,5.667311 -6.85142,8.05295 -0.653207,0.662113 -1.691359,1.001477 -2.534703,0.517446 -2.159096,-0.993267 -4.349467,-2.018864 -6.748221,-2.230616 -1.514479,-0.0353 -2.708269,-1.080806 -3.645489,-2.178186 -1.617582,-1.867635 -2.604861,-4.237629 -3.280302,-6.607094 -0.824876,-2.738107 -0.722148,-5.611074 -0.908285,-8.435376 -0.123471,-0.905486 -0.08046,-2.10864 -0.977308,-2.634254 -0.948551,-0.350121 -1.902504,0.252134 -2.600447,0.831473 -0.84827,0.394416 -1.845014,0.05285 -2.733271,-0.014 -3.872694,-0.674151 -7.580379,-2.05962 -11.418515,-2.871048 -0.05273,-0.0046 -0.106094,-0.01278 -0.15904,-0.0056 z"
       id="na241"
       inkscape:connector-curvature="0"
       inkscape:label="241" />
    <path
       style="fill:#ce99ff;fill-opacity:1"
       d="m 18.242716,56.973351 c -0.578161,-0.03057 -1.237588,0.395798 -1.113281,1.040736 0.05896,1.115983 0.683659,2.289807 0.281808,3.376116 -0.450937,0.820297 -1.575188,0.728529 -2.248884,1.227679 0.0085,0.393716 0.644639,0.235452 0.897012,0.343389 0.984308,0.123472 2.284997,0.183506 2.772073,1.20237 0.255069,0.496004 -0.437326,0.686057 -0.795201,0.703125 -0.61002,-0.01746 -1.336347,0.411912 -1.227678,1.110491 -0.05581,1.562999 0.939067,3.081755 2.315848,3.769531 0.908715,0.315307 1.898895,0.483912 2.633928,1.155134 0.748792,0.620682 1.461242,1.481733 1.512277,2.480469 -0.195134,0.762913 -1.206806,0.829981 -1.821121,1.074921 -0.880232,0.283265 -2.136554,0.482071 -2.344615,1.572958 -0.242762,1.421957 0.09773,2.876636 0.265917,4.287869 0.450857,2.846383 1.253552,5.706423 2.797699,8.156328 1.646112,2.156264 3.981798,3.703738 6.450893,4.768415 1.087685,0.398905 2.249483,0.856922 3.426339,0.722656 1.181545,-0.432292 2.02257,-1.455252 2.935268,-2.279576 2.881185,-2.872918 5.535356,-6.00026 7.699397,-9.451561 0.352766,-0.656033 0.843734,-1.352098 0.774375,-2.122099 -5.392702,-3.760869 -10.773777,-7.799179 -14.447901,-13.32669 -1.743166,-2.536135 -3.138779,-5.321546 -5.101163,-7.702343 -0.873851,-1.082358 -2.1357,-1.84153 -3.535917,-1.96112 -0.701832,-0.09526 -1.416443,-0.182772 -2.127073,-0.148798 z"
       id="na242"
       inkscape:connector-curvature="0"
       inkscape:label="242" />
    <path
       style="fill:#ce99ff;fill-opacity:1"
       d="m 56.25683,87.90663 c -1.500704,0.04793 -2.900041,0.718234 -4.171777,1.46435 -1.826102,1.128454 -3.498715,2.612337 -4.572643,4.491286 -0.480397,0.843284 -0.745881,1.814959 -0.656005,2.79011 0.0728,0.958486 0.227497,1.988486 0.840157,2.763741 0.56566,0.458766 0.694926,1.217933 0.85798,1.888953 0.42626,2.23769 0.119287,4.552 0.509208,6.79687 0.136777,0.72471 0.468526,1.54408 1.226283,1.80246 0.948151,0.31019 1.939727,-0.0748 2.846856,-0.35087 1.955425,-0.67595 3.833823,-1.57129 5.860841,-2.01796 1.22525,-0.30726 2.48604,-0.40573 3.743475,-0.47715 1.588116,-0.14304 3.245396,-0.70758 4.294085,-1.96289 0.587777,-0.67472 0.782619,-1.67627 0.410156,-2.49721 -0.285638,-0.68191 -0.714304,-1.46129 -1.492745,-1.63923 -0.676179,-0.11755 -1.23125,0.42734 -1.586217,0.9361 -0.490748,0.61959 -1.338529,0.7659 -2.068917,0.90123 -0.875749,0.1145 -1.788292,0.15658 -2.649275,-0.0698 -0.449761,-0.12405 -0.531067,-0.64993 -0.544085,-1.04352 -0.0037,-1.49064 0.307698,-2.963122 0.423625,-4.448201 0.09636,-1.091236 0.133648,-2.238606 -0.26877,-3.276411 -0.31934,-0.786968 -1.120202,-1.226774 -1.523437,-1.944755 -0.19324,-0.378997 -0.142422,-0.837984 0.107422,-1.177455 0.370134,-0.539895 0.821404,-1.16027 0.698939,-1.852679 -0.203651,-0.603168 -0.858212,-0.890382 -1.432756,-1.026785 -0.2801,-0.05724 -0.567421,-0.06042 -0.8524,-0.05022 z"
       id="na247"
       inkscape:connector-curvature="0"
       inkscape:label="247" />
    <path
       style="fill:#ce99ff;fill-opacity:1"
       d="m 16.548845,76.335966 c -1.584259,0.276539 -3.161007,1.354522 -3.685826,2.915737 -0.250904,1.163 -1.431113,1.767536 -2.293527,2.458147 -3.0620245,2.078219 -6.5544747,3.485476 -9.7656249,5.332032 0.004949,0.416833 0.4710612,0.748359 0.6501116,1.124442 1.4784114,2.142842 3.0599252,4.188829 4.8688616,6.060267 4.1466567,4.534762 8.6631307,8.718709 12.7594737,13.287649 0.768175,0.91933 1.604634,1.85981 2.109388,2.95119 -1.223386,0.73047 -2.542763,1.32707 -3.691863,2.19889 -1.679829,1.22653 -3.297242,2.67045 -4.309433,4.5141 -0.310175,0.87105 -0.414183,2.01724 -1.348592,2.46949 -0.993866,0.42843 -2.2924424,0.0679 -3.133371,0.86495 -0.6537854,0.90472 -0.28236,2.12686 0.00558,3.10268 0.1337025,0.58888 0.686343,1.0926 1.311384,0.87612 1.96392,-0.42822 3.732905,-1.60099 5.744978,-1.81083 1.678507,-0.0189 2.830413,1.53902 4.416853,1.82478 1.147929,0.032 1.87021,-1.06041 2.65904,-1.73549 1.342821,-1.29134 2.902987,-2.57065 4.83817,-2.6981 3.090946,-0.48866 5.878525,-1.9773 8.794642,-3.02735 0.730864,-0.25074 1.637837,-0.27729 2.181406,0.36935 1.445173,1.5045 3.688347,1.87452 5.678527,1.5782 1.871992,-0.38388 2.803144,-2.26221 3.621652,-3.80302 0.557827,-1.25328 1.428094,-2.5083 1.353237,-3.93136 -0.13284,-1.01409 -1.184767,-1.55904 -1.369978,-2.56696 -0.940265,-3.22133 -1.023516,-6.62144 -1.312784,-9.952779 -0.382946,-5.16371 -0.52361,-10.359826 -1.287662,-15.485282 -0.042,-0.292437 -0.178386,-0.966796 -0.608259,-0.700335 -1.543027,1.133617 -2.804489,2.685019 -4.121094,4.076451 -2.283474,2.533521 -4.412778,5.215056 -6.41183,7.96596 -0.34842,0.496686 -0.860439,0.906607 -1.509487,0.767299 -1.764439,-0.143971 -3.43581,-0.854774 -5.066964,-1.512277 -3.198715,-1.460752 -5.893318,-3.975702 -7.720424,-6.964285 -1.069996,-1.759698 -1.742147,-3.737477 -1.827567,-5.800782 -0.146257,-1.422528 -0.04008,-2.92592 -0.566407,-4.274553 -0.217676,-0.294468 -0.590558,-0.511374 -0.962611,-0.474331 z"
       id="na240"
       inkscape:connector-curvature="0"
       inkscape:label="240" />
    <path
       style="fill:#ff0000;fill-opacity:1"
       d="m 30.458125,120.97363 c -2.448557,0.146 -4.939539,0.71482 -7.021744,2.03214 -0.518612,0.42416 -1.07423,0.91529 -1.286366,1.57047 -0.142656,0.88515 0.665926,1.49691 1.186791,2.08038 1.311946,1.33986 2.825651,2.67404 3.228681,4.58426 0.367151,1.81951 0.218912,3.70868 0.542824,5.54121 0.204992,1.04486 0.358038,2.15814 0.946756,3.06679 0.124293,0.23442 0.461022,0.35537 0.615562,0.0848 1.333335,-1.89612 2.427996,-3.95065 3.584509,-5.95794 1.273007,-2.32259 2.611579,-4.61856 3.70871,-7.02967 0.243049,-0.43325 -0.324034,-0.69995 -0.636258,-0.8443 -0.915309,-0.46351 -2.115544,-0.53429 -2.744593,-1.43087 -0.695749,-0.86664 -0.385927,-2.08616 -0.714209,-3.09162 -0.257295,-0.52429 -0.88026,-0.64843 -1.410663,-0.60569 z"
       id="na248"
       inkscape:connector-curvature="0"
       inkscape:label="248" />
    <path
       style="fill:#ce99ff;fill-opacity:1"
       d="m 37.568652,117.94317 c -1.343776,0.12722 -2.6243,0.78845 -3.582885,1.73028 -1.373733,1.43489 -1.040915,4.09599 0.688561,5.09417 0.839567,0.5045 1.888925,0.20621 2.75819,0.5544 0.36751,0.2981 0.109121,0.85911 0.002,1.22915 -0.949891,2.27863 -2.255708,4.37934 -3.413414,6.55507 -1.136313,2.12507 -2.343698,4.24547 -3.134821,6.52759 -0.122541,0.26881 -0.05844,0.57705 0.295943,0.46364 1.10999,-0.25467 2.085955,-0.89432 3.087452,-1.41497 3.489231,-1.98848 6.862852,-4.18956 10.126606,-6.52656 1.223228,-0.93504 2.620633,-1.95456 2.968113,-3.55093 0.320445,-2.07467 -0.05279,-4.27654 0.733939,-6.26018 0.224206,-0.44952 0.700779,-0.78846 0.658966,-1.34753 -0.06835,-1.01893 -0.594724,-2.04123 -1.426445,-2.64178 -0.452926,-0.18923 -0.790953,0.31458 -1.047639,0.60964 -0.890986,0.73791 -2.126007,0.811 -3.237609,0.85976 -1.053523,0.006 -2.172384,-0.0168 -3.109385,-0.54211 -0.595606,-0.54262 -1.146204,-1.31858 -2.037748,-1.32817 -0.108502,-0.0161 -0.219553,-0.0158 -0.329797,-0.0115 z"
       id="na249"
       inkscape:connector-curvature="0"
       inkscape:label="249" />
    <path
       style="fill:#ce99ff;fill-opacity:1"
       d="m 75.477589,101.17431 c -0.984115,0.0487 -1.704403,0.81748 -2.50436,1.29893 -2.960213,2.0494 -5.951745,4.1193 -9.262339,5.58076 -1.127616,0.50616 -2.336242,0.82664 -3.576966,0.83653 -3.297868,0.23922 -6.574496,1.4717 -9.046409,3.6954 -1.210749,1.13998 -2.079853,2.7568 -2.0645,4.44692 0.149144,1.86472 1.22248,3.46676 2.022444,5.10791 0.67889,1.25461 1.310629,2.5538 2.028619,3.77653 0.508409,-0.18291 0.995859,-0.56917 1.50247,-0.82308 1.213772,-0.62768 2.33445,-1.48849 3.665867,-1.81837 1.30437,-0.26731 2.520676,0.48207 3.676671,0.9771 2.066974,0.95803 4.093124,2.05077 6.27236,2.73152 0.352315,0.18172 0.705798,0.006 0.968743,-0.24067 1.517854,-1.3563 2.410435,-3.23874 3.434914,-4.97184 0.728384,-1.19756 1.402904,-2.48316 2.403058,-3.47635 0.316733,-0.34793 0.77392,-0.0109 1.114719,0.11049 2.216588,1.12054 4.205804,2.64259 6.139255,4.18333 1.173355,1.01104 2.483374,1.93855 3.159278,3.37308 0.334094,0.72402 1.147645,1.13948 1.929549,1.00029 1.594144,-0.24798 2.982339,-1.1434 4.366239,-1.91702 1.408061,-0.85685 2.838083,-1.69544 4.204274,-2.61485 0.04887,-0.29304 -0.335277,-0.47902 -0.455752,-0.72408 -1.35339,-1.6166 -2.626984,-3.3125 -4.096099,-4.82016 -1.081032,-1.10498 -2.53278,-1.88508 -4.09758,-1.9451 -1.478669,-0.12152 -2.971694,-0.0206 -4.447039,-0.10851 0.260416,-2.28296 0.699353,-4.54971 0.83456,-6.84418 0.0627,-0.92447 -0.142735,-1.91431 -0.836259,-2.57346 -1.203692,-1.17611 -2.698039,-2.03041 -4.107964,-2.94687 -0.996811,-0.56504 -2.037867,-1.2908 -3.227753,-1.29425 z"
       id="na252"
       inkscape:connector-curvature="0"
       inkscape:label="252" />
    <path
       style="fill:#ce99ff;fill-opacity:1"
       d="m 75.194436,119.07888 c -0.534143,0.64332 -0.856623,1.45344 -1.288249,2.16884 -1.355967,2.43214 -2.617851,4.9521 -4.22028,7.22781 -0.140737,0.19861 -0.339321,0.49622 -0.615521,0.3162 -2.775386,-1.07387 -5.31393,-2.77152 -8.235048,-3.45871 -1.456164,-0.33487 -3.021798,-0.65452 -4.488534,-0.2169 -0.497628,0.16282 -1.07746,0.58819 -0.903613,1.18772 0.297806,1.308 1.120803,2.43679 1.992684,3.42702 0.942216,1.07178 2.352619,1.60823 3.752559,1.73225 1.90079,0.26658 3.946668,0.005 5.701838,0.90756 1.095899,0.64521 1.491653,1.93459 2.349788,2.81343 0.502035,0.63618 1.174398,1.08924 1.787497,1.60993 0.513179,0.52345 0.185442,1.31147 -0.06049,1.88692 -0.6954,1.52939 -1.329193,3.24058 -1.058174,4.94937 0.219405,0.9277 0.722631,1.90566 1.635579,2.30244 0.416367,0.1691 0.919759,0.007 1.1088,-0.41235 0.300196,-0.5591 0.607629,-1.29906 1.323852,-1.38107 1.332754,-0.20539 2.601511,0.53544 3.60656,1.33372 1.186923,0.97899 2.150101,2.37367 2.229439,3.96366 0.0954,1.04265 0.05013,2.27871 0.893748,3.04822 0.631057,0.54703 1.542577,0.64022 2.341897,0.58005 0.904846,-0.28723 1.412366,-1.20582 1.87036,-1.9769 1.234891,-2.30785 1.905291,-4.85942 2.763031,-7.32196 0.758199,-2.4469 1.668984,-4.89472 1.843817,-7.47125 0.115329,-1.54137 -0.217192,-3.10985 -1.030625,-4.43083 -1.814238,-3.02623 -4.142624,-5.72436 -6.721112,-8.12111 -1.822903,-1.72519 -3.998864,-3.00035 -6.069541,-4.40068 -0.165765,-0.0733 -0.323041,-0.28796 -0.510261,-0.26338 z"
       id="na251"
       inkscape:connector-curvature="0"
       inkscape:label="251" />
    <path
       style="fill:#ce99ff;fill-opacity:1"
       d="m 133.24235,122.63194 c -0.44624,0.0124 -1.26355,0.12003 -1.11886,0.75614 1.32321,6.40818 2.29404,12.88466 3.45717,19.32358 0.58621,3.08061 1.00765,6.2322 2.12598,9.17252 0.24355,0.68383 0.83034,1.2707 1.5904,1.26395 1.21949,0.17533 2.14136,1.05708 3.04966,1.81082 1.70981,1.20632 3.91529,1.07215 5.89565,1.31697 0.5656,0.17505 1.44093,0.26109 1.57087,0.95982 -0.0924,0.84878 -1.11045,1.07092 -1.45647,1.79129 -0.52022,0.89863 -0.66429,2.07109 -0.27902,3.04688 0.72546,0.99949 2.13086,0.76202 3.21113,0.86432 1.43661,0.0729 3.02072,0.1677 4.10102,1.22857 0.43993,0.47633 1.19089,0.61936 1.71687,0.18947 1.41844,-1.06179 2.36039,-2.63983 3.38588,-4.06041 0.99902,-1.59736 2.17894,-3.16424 2.63532,-5.01883 0.32564,-2.05431 -0.53188,-4.05753 -0.54561,-6.10759 -0.13026,-1.48092 0.20948,-2.92505 0.46205,-4.36602 0.42447,-3.60225 0.009,-7.27847 -0.91493,-10.76732 -0.66955,-2.17093 -1.58755,-4.24262 -2.40273,-6.36509 -0.64886,-0.0892 -1.37173,0.14069 -2.05032,0.16254 -2.60813,0.21915 -5.20872,0.64054 -7.82971,0.64103 -0.9911,-0.0186 -2.05813,-0.22617 -2.69531,-1.06585 -1.41111,-1.75277 -3.66378,-2.39698 -5.7016,-3.11337 -2.60455,-0.80846 -5.27991,-1.55178 -8.01771,-1.66621 -0.0633,-3.2e-4 -0.12649,-5.8e-4 -0.18973,0.003 z"
       id="na255"
       inkscape:connector-curvature="0"
       inkscape:label="255" />
    <path
       style="fill:#ce99ff;fill-opacity:1"
       d="m 121.26909,88.455071 c -1.35435,0.207433 -2.40229,1.20564 -3.43841,2.01671 -1.52315,1.222564 -2.92883,2.645793 -4.66427,3.552487 -0.70045,0.361973 -1.51708,0.535746 -2.27015,0.216852 -1.02729,-0.392245 -2.09058,-0.649412 -3.1986,-0.596317 -1.33777,0.03584 -2.72465,-0.03431 -4.01785,0.340402 -0.84115,0.448921 -0.65305,1.584164 -0.64536,2.382686 0.11527,2.197349 0.69422,4.413099 0.42493,6.607269 -0.38517,1.20493 -1.71053,1.67639 -2.72879,2.23214 -0.816708,0.43758 -1.873064,0.66059 -2.675782,0.067 -0.767613,-0.43966 -1.534398,-1.37841 -2.505581,-1.1077 -1.020828,0.35158 -1.598452,1.57811 -2.728794,1.6183 -0.623879,-0.0428 -0.616918,-0.87943 -0.715122,-1.33569 -0.130245,-0.84718 -0.08506,-1.97068 -0.905972,-2.48127 -0.705903,-0.28095 -1.139117,0.54003 -1.238839,1.11328 -0.206367,1.0223 -0.22801,2.25794 -1.171875,2.91294 -0.871107,0.50342 -1.867291,1.18436 -1.930804,2.28795 -0.03336,0.74331 -0.510054,1.5261 -1.312033,1.5817 -1.080989,-0.0322 -2.114071,1.17952 -1.575802,2.21294 0.531065,0.94527 1.779326,1.0206 2.751116,1.0519 2.130837,0.16964 3.83134,1.7035 5.295091,3.11312 1.493528,1.56063 3.047822,3.13619 4.144084,4.98119 0.378845,0.70169 0.712202,1.7921 -0.0028,2.38002 -1.22626,1.05077 -2.833701,1.46472 -4.226476,2.26158 -1.349747,0.74539 -2.943337,1.48496 -3.574863,2.99233 -0.30135,0.90171 0.473064,1.75707 1.107701,2.2991 0.920351,0.75911 2.141826,0.10509 3.057757,-0.30898 2.057916,-0.95327 3.951398,-2.21242 5.868024,-3.41032 1.95429,-0.77911 4.09063,-0.96018 6.15736,-1.2405 4.36666,-0.5375 8.84223,-0.43399 13.10324,-1.62781 3.36918,-1.03519 6.32986,-3.00952 9.41127,-4.67076 4.37612,0.91047 8.78506,1.68418 13.12425,2.7592 2.27533,0.6573 4.70713,1.34386 6.38747,3.09739 0.80782,0.67913 1.52157,1.7371 2.67299,1.76897 2.09761,0.1551 4.08968,-0.63165 6.10497,-1.07869 1.17312,-0.31905 2.37408,-0.56836 3.52673,-0.94419 0.0412,-0.36954 -0.47256,-0.59559 -0.64803,-0.89005 -3.41447,-3.49588 -7.15412,-6.78548 -11.59207,-8.91293 -0.7911,-0.42859 -1.61412,-0.80468 -2.34695,-1.32704 1.33634,-2.06809 3.20558,-3.72634 4.80656,-5.60059 3.21482,-3.63718 6.44876,-7.28608 9.22767,-11.267566 0.24094,-0.494512 0.83293,-1.017042 0.63095,-1.619568 -0.47414,-0.731297 -1.51249,-0.708215 -2.28516,-0.867745 -1.65858,-0.247379 -3.4439,0.0136 -5.00279,-0.636161 -1.26831,-0.585208 -1.01865,-2.439587 -2.25447,-3.032924 -0.79695,-0.299309 -1.60001,0.289888 -2.35749,0.492388 -4.96428,1.875326 -10.19024,3.156629 -15.49965,3.444554 -1.87446,0.112815 -3.73458,-0.419986 -5.60169,-0.257403 -0.64074,0.01776 -1.14793,0.566463 -1.12822,1.206064 -0.17067,1.792536 -1.25682,3.513463 -2.89341,4.302451 -0.72561,0.292 -1.83588,0.1096 -2.10659,-0.714282 -0.0506,-1.688916 0.78946,-3.234165 1.23459,-4.833793 0.51789,-1.731045 1.26774,-3.448685 1.32401,-5.275024 0.006,-0.595811 -0.33342,-1.352988 -1.04353,-1.25837 l -0.0725,0.0028 z"
       id="na256"
       inkscape:connector-curvature="0"
       inkscape:label="256" />
    <path
       style="fill:#ce99ff;fill-opacity:1"
       d="m 157.5776,39.374368 c -1.77795,0.500808 -2.36118,2.706717 -3.50989,3.958737 -6.08581,9.35102 -12.05054,18.802312 -17.42819,28.579082 -0.44983,0.820236 -1.16161,1.928601 -0.22777,2.636008 0.90004,2.664404 -1.42407,4.9957 -2.26495,7.355173 -0.16236,1.082642 1.54382,1.137536 1.45209,2.264952 0.37908,2.166939 -2.98765,2.788213 -2.8016,4.932385 -0.14898,1.80533 -1.88127,2.810227 -2.47013,4.348391 0.64131,1.279192 2.55842,0.743344 3.70915,0.678697 5.45621,-0.827391 10.78822,-2.596229 15.83888,-4.742982 1.23777,0.05026 1.01622,1.95965 1.79144,2.683217 0.93599,1.170207 2.78777,0.736563 4.10869,1.096167 1.42603,0.34643 3.51601,-0.06862 4.44604,1.27927 0.57699,2.276947 -1.71874,3.98981 -2.89471,5.684625 -3.94309,4.72233 -7.96243,9.47038 -11.33424,14.59734 2.92386,1.69312 6.28776,2.9541 8.84673,5.30331 2.94942,2.74664 6.56206,5.51746 7.05175,9.80239 1.51566,5.34309 3.37918,10.74682 6.30909,15.45142 1.92261,1.90472 4.98897,1.52787 7.47246,1.97279 3.81799,0.28866 7.70241,0.82584 11.51526,0.37897 1.57876,-0.74779 0.50611,-2.93801 1.08907,-4.25369 0.33482,-1.67879 2.42102,-0.89115 3.51975,-1.65728 1.8817,-0.76619 2.48882,-3.02735 3.0857,-4.78244 -0.0457,-1.29067 -1.93169,-0.96848 -2.78581,-1.16799 -6.28034,-0.37385 -12.62323,-0.86185 -18.71939,-2.43068 -3.52271,-1.16937 -5.56314,-4.64708 -7.73398,-7.41042 -1.9017,-2.36057 -1.5472,-5.59477 -1.19167,-8.389 1.17603,-3.31906 4.31321,-5.38712 6.26595,-8.25465 2.08544,-2.75431 4.57636,-5.85519 3.85314,-9.548897 -0.0559,-6.813221 1.63292,-13.593312 4.31504,-19.832524 2.87121,-5.043924 7.2345,-9.218352 9.37548,-14.710347 2.35288,-5.274084 6.66166,-9.26146 9.79375,-14.023758 0.49908,-0.597862 0.50972,-1.534574 -0.41827,-1.696741 -7.54418,-2.671186 -15.41446,-4.318342 -23.13115,-6.421541 -5.60616,-1.323043 -11.20445,-3.067058 -16.92771,-3.679984 z"
       id="na257"
       inkscape:connector-curvature="0"
       inkscape:label="257" />
    <path
       style="fill:#ce99ff;fill-opacity:1"
       d="m 127.92573,121.95265 c -4.28659,0.24215 -7.59967,3.73628 -11.90703,3.94012 -1.83178,0.0594 -3.13464,1.6062 -4.97913,1.64024 -5.40306,0.6193 -11.268527,-0.047 -16.121648,2.86272 -1.846844,1.00103 -3.350559,2.64329 -3.722098,4.76563 -1.554658,5.60529 -3.367411,11.13729 -5.055804,16.70201 -0.439975,1.31158 -1.034424,2.71426 -2.405134,3.25892 -1.196157,1.3573 -0.459458,3.39681 -0.457589,5.01675 0.338473,2.83725 0.460095,5.73528 1.071428,8.5212 0.40164,0.76119 0.92046,-0.48064 1.14328,-0.77672 0.897679,-1.39474 1.554445,-3.50628 3.53306,-3.55364 2.213459,-0.22821 4.44661,-0.17712 6.668527,-0.26785 0.09799,4.26415 0.0997,8.62094 1.623883,12.66741 0.712202,2.06387 1.002204,4.26118 0.61942,6.42299 0.01484,1.12358 1.470752,0.61351 2.122205,0.49297 0.7935,-0.0648 1.79523,-0.50246 2.51507,-0.0521 0.38099,1.47288 1.11593,2.8375 2.2154,3.91183 0.89593,0.95976 1.79277,2.07861 1.72433,3.4654 0.83243,1.62756 2.72403,2.56939 4.49219,2.75111 2.65292,-0.65837 5.41128,-0.35601 8.09152,-0.64174 -0.17994,-4.64016 -0.69514,-9.37738 -0.9875,-14.05572 -0.0736,-1.20874 -0.20644,-2.41649 -0.20112,-3.62843 6.43379,-0.6958 13.32518,-1.16684 18.80023,-4.96652 2.31495,-1.55043 3.54038,-4.33355 6.17745,-5.4241 1.33626,-0.49456 2.98185,-1.17982 3.11384,-2.82366 0.0905,-1.7196 0.72812,-3.33455 1.76897,-4.67634 0.28245,-0.65639 -0.88287,-0.2318 -1.17035,-0.26138 -1.60825,0.24255 -3.6146,0.82532 -4.83411,-0.58684 -1.00696,-1.0422 -2.26937,-1.75451 -3.64397,-2.12053 -1.54104,-1.03059 -1.69356,-3.16419 -2.23773,-4.79353 -1.99293,-8.48607 -2.99361,-17.20705 -4.83259,-25.72545 -0.15753,-1.27172 -1.31021,-2.27869 -2.61716,-2.06748 -0.16924,-0.003 -0.33871,-0.007 -0.50784,0.003 z"
       id="na254"
       inkscape:connector-curvature="0"
       inkscape:label="254"
       onclick="onNAClick" />
    <path
       style="fill:#ce99ff;fill-opacity:1"
       d="m 49.956984,122.84551 c -1.007315,0.91966 -0.487021,2.56911 -0.450834,3.777 0.231183,1.24383 0.259961,2.71582 -0.821487,3.57233 -4.003849,3.40542 -8.682449,5.98851 -12.940716,9.08616 -1.346817,1.11315 -3.178732,1.91985 -3.934284,3.57009 -0.239189,1.15278 1.361749,1.15341 2.098214,1.30022 4.905629,0.73027 9.938067,0.37701 14.810268,1.24442 2.042639,0.53279 3.70637,2.02062 5.373884,3.23103 -3.303348,4.37997 -6.826323,8.62446 -10.494573,12.68207 -1.691288,1.80854 -3.942935,3.46951 -6.570159,3.1215 -1.590975,0.0528 -3.261461,-0.79844 -4.799107,-0.22879 -0.723652,0.78831 -0.173261,2.06022 0.106026,2.952 0.437945,1.33004 1.858229,1.77944 3.11384,1.92523 4.780169,0.82773 9.763751,1.67365 13.766741,4.58705 8.930805,6.22748 16.78465,14.63292 20.552455,24.98326 2.370318,5.52028 7.114888,9.50604 11.545759,13.35937 1.265591,1.21716 2.947693,1.92177 4.715402,1.70759 5.147871,-0.25708 9.987202,-2.76153 13.761161,-6.17745 0.619216,-1.0884 -0.321736,-2.39683 -0.562424,-3.49402 -0.997342,-2.48043 -1.790187,-5.16364 -3.500076,-7.25933 -2.139015,-2.10782 -3.134724,-5.15785 -5.105206,-7.44474 -2.114009,-2.80091 -5.149891,-4.99469 -6.172696,-8.48718 -1.46008,-4.694 -1.42367,-9.70213 -1.892764,-14.56738 -0.401233,-4.13076 -0.429775,-8.3718 -1.589379,-12.37458 -1.030005,-1.92771 -1.911605,-3.90642 -2.427455,-6.03795 -0.488016,-1.66001 -2.189204,-3.26274 -4.012277,-2.57254 -0.926161,0.49852 -1.487507,1.62333 -2.444197,1.9866 -2.161787,-1.28711 -2.951123,-3.91709 -2.929687,-6.32812 -0.143611,-2.70949 -0.744893,-5.71724 -2.907366,-7.55023 -2.241929,-0.86363 -4.905782,-0.0109 -7.042411,-1.32254 -3.007611,-1.87751 -5.415461,-4.64201 -7.589286,-7.42188 -0.531089,-0.61458 -0.657509,-1.79292 -1.657366,-1.81919 z"
       id="na250"
       inkscape:connector-curvature="0"
       inkscape:label="250" />
  </g>
  <g
     inkscape:groupmode="layer"
     id="layer3"
     inkscape:label="labels"
     style="display:inline">
    <text
       xml:space="preserve"
       style="font-size:8px;font-style:normal;font-weight:normal;line-height:125%;letter-spacing:0px;word-spacing:0px;fill:#000000;fill-opacity:1;stroke:none;font-family:Sans"
       x="108.10663"
       y="60.670189"
       id="text3030"
       sodipodi:linespacing="125%"><tspan
         sodipodi:role="line"
         id="tspan3032"
         x="108.10663"
         y="60.670189">253</tspan></text>
    <text
       xml:space="preserve"
       style="font-size:8px;font-style:normal;font-weight:normal;line-height:125%;letter-spacing:0px;word-spacing:0px;fill:#000000;fill-opacity:1;stroke:none;font-family:Sans"
       x="155.07872"
       y="73.842781"
       id="text3034"
       sodipodi:linespacing="125%"><tspan
         sodipodi:role="line"
         id="tspan3036"
         x="155.07872"
         y="73.842781">257</tspan></text>
    <text
       xml:space="preserve"
       style="font-size:8px;font-style:normal;font-weight:normal;line-height:125%;letter-spacing:0px;word-spacing:0px;fill:#000000;fill-opacity:1;stroke:none;font-family:Sans"
       x="73.488609"
       y="64.877686"
       id="text3038"
       sodipodi:linespacing="125%"><tspan
         sodipodi:role="line"
         id="tspan3040"
         x="73.488609"
         y="64.877686">244</tspan></text>
    <text
       xml:space="preserve"
       style="font-size:8px;font-style:normal;font-weight:normal;line-height:125%;letter-spacing:0px;word-spacing:0px;fill:#000000;fill-opacity:1;stroke:none;font-family:Sans"
       x="55.558392"
       y="76.873283"
       id="text3042"
       sodipodi:linespacing="125%"><tspan
         sodipodi:role="line"
         id="tspan3044"
         x="55.558392"
         y="76.873283">245</tspan></text>
    <text
       xml:space="preserve"
       style="font-size:8px;font-style:normal;font-weight:normal;line-height:125%;letter-spacing:0px;word-spacing:0px;fill:#000000;fill-opacity:1;stroke:none;font-family:Sans"
       x="37.375648"
       y="72.771713"
       id="text3046"
       sodipodi:linespacing="125%"><tspan
         sodipodi:role="line"
         id="tspan3048"
         x="37.375648"
         y="72.771713">241</tspan></text>
    <text
       xml:space="preserve"
       style="font-size:8px;font-style:normal;font-weight:normal;line-height:125%;letter-spacing:0px;word-spacing:0px;fill:#000000;fill-opacity:1;stroke:none;font-family:Sans"
       x="65.91246"
       y="92.025551"
       id="text3050"
       sodipodi:linespacing="125%"><tspan
         sodipodi:role="line"
         id="tspan3052"
         x="65.91246"
         y="92.025551">246</tspan></text>
    <text
       xml:space="preserve"
       style="font-size:8px;font-style:normal;font-weight:normal;line-height:125%;letter-spacing:0px;word-spacing:0px;fill:#000000;fill-opacity:1;stroke:none;font-family:Sans"
       x="23.233509"
       y="84.408775"
       id="text3054"
       sodipodi:linespacing="125%"><tspan
         sodipodi:role="line"
         id="tspan3056"
         x="23.233509"
         y="84.408775">242</tspan></text>
    <text
       xml:space="preserve"
       style="font-size:8px;font-style:normal;font-weight:normal;line-height:125%;letter-spacing:0px;word-spacing:0px;fill:#000000;fill-opacity:1;stroke:none;font-family:Sans"
       x="25.253815"
       y="107.76411"
       id="text3058"
       sodipodi:linespacing="125%"><tspan
         sodipodi:role="line"
         id="tspan3060"
         x="25.253815"
         y="107.76411">240</tspan></text>
    <text
       xml:space="preserve"
       style="font-size:8px;font-style:normal;font-weight:normal;line-height:125%;letter-spacing:0px;word-spacing:0px;fill:#000000;fill-opacity:1;stroke:none;font-family:Sans"
       x="63.598999"
       y="115.76413"
       id="text3062"
       sodipodi:linespacing="125%"><tspan
         sodipodi:role="line"
         id="tspan3064"
         x="63.598999"
         y="115.76413">252</tspan></text>
    <text
       xml:space="preserve"
       style="font-size:8px;font-style:normal;font-weight:normal;line-height:125%;letter-spacing:0px;word-spacing:0px;fill:#000000;fill-opacity:1;stroke:none;font-family:Sans"
       x="72.225906"
       y="136.47224"
       id="text3066"
       sodipodi:linespacing="125%"><tspan
         sodipodi:role="line"
         id="tspan3068"
         x="72.225906"
         y="136.47224">251</tspan></text>
    <text
       xml:space="preserve"
       style="font-size:8px;font-style:normal;font-weight:normal;line-height:125%;letter-spacing:0px;word-spacing:0px;fill:#000000;fill-opacity:1;stroke:none;font-family:Sans"
       x="112.04571"
       y="114.22858"
       id="text3070"
       sodipodi:linespacing="125%"><tspan
         sodipodi:role="line"
         id="tspan3072"
         x="112.04571"
         y="114.22858">256</tspan></text>
    <text
       xml:space="preserve"
       style="font-size:8px;font-style:normal;font-weight:normal;line-height:125%;letter-spacing:0px;word-spacing:0px;fill:#000000;fill-opacity:1;stroke:none;font-family:Sans"
       x="143.42136"
       y="144.49255"
       id="text3074"
       sodipodi:linespacing="125%"><tspan
         sodipodi:role="line"
         id="tspan3076"
         x="143.42136"
         y="144.49255">255</tspan></text>
    <text
       xml:space="preserve"
       style="font-size:8px;font-style:normal;font-weight:normal;line-height:125%;letter-spacing:0px;word-spacing:0px;fill:#000000;fill-opacity:1;stroke:none;font-family:Sans"
       x="105.05586"
       y="155.11945"
       id="text3078"
       sodipodi:linespacing="125%"><tspan
         sodipodi:role="line"
         id="tspan3080"
         x="105.05586"
         y="155.11945">254</tspan></text>
    <text
       xml:space="preserve"
       style="font-size:8px;font-style:normal;font-weight:normal;line-height:125%;letter-spacing:0px;word-spacing:0px;fill:#000000;fill-opacity:1;stroke:none;font-family:Sans"
       x="58.043159"
       y="166.29205"
       id="text3082"
       sodipodi:linespacing="125%"><tspan
         sodipodi:role="line"
         id="tspan3084"
         x="58.043159"
         y="166.29205">250</tspan></text>
    <text
       xml:space="preserve"
       style="font-size:8px;font-style:normal;font-weight:normal;line-height:125%;letter-spacing:0px;word-spacing:0px;fill:#000000;fill-opacity:1;stroke:none;font-family:Sans"
       x="295.46964"
       y="111.21843"
       id="text3086"
       sodipodi:linespacing="125%"><tspan
         sodipodi:role="line"
         id="tspan3088"
         x="295.46964"
         y="111.21843"></tspan></text>
    <text
       xml:space="preserve"
       style="font-size:8px;font-style:normal;font-weight:normal;line-height:125%;letter-spacing:0px;word-spacing:0px;fill:#000000;fill-opacity:1;stroke:none;font-family:Sans"
       x="289.40869"
       y="129.90625"
       id="text3090"
       sodipodi:linespacing="125%"><tspan
         sodipodi:role="line"
         id="tspan3092"
         x="289.40869"
         y="129.90625"></tspan></text>
    <text
       xml:space="preserve"
       style="font-size:8px;font-style:normal;font-weight:normal;line-height:125%;letter-spacing:0px;word-spacing:0px;fill:#000000;fill-opacity:1;stroke:none;font-family:Sans"
       x="101.8347"
       y="-30.996487"
       id="text3094"
       sodipodi:linespacing="125%"
       transform="matrix(0.18978264,0.98182613,-0.98182613,0.18978264,0,0)"><tspan
         sodipodi:role="line"
         id="tspan3096"
         x="101.8347"
         y="-30.996487">247</tspan></text>
    <text
       xml:space="preserve"
       style="font-size:6.92430115px;font-style:normal;font-weight:normal;line-height:125%;letter-spacing:0px;word-spacing:0px;fill:#000000;fill-opacity:1;stroke:none;font-family:Sans"
       x="104.13448"
       y="73.419685"
       id="text3098"
       sodipodi:linespacing="125%"
       transform="matrix(0.71452832,0.69960652,-0.69960652,0.71452832,0,0)"><tspan
         sodipodi:role="line"
         id="tspan3100"
         x="104.13448"
         y="73.419685">248</tspan></text>
    <text
       xml:space="preserve"
       style="font-size:8px;font-style:normal;font-weight:normal;line-height:125%;letter-spacing:0px;word-spacing:0px;fill:#000000;fill-opacity:1;stroke:none;font-family:Sans"
       x="-68.768288"
       y="122.94765"
       id="text3102"
       sodipodi:linespacing="125%"
       transform="matrix(0.70429795,-0.7099045,0.7099045,0.70429795,0,0)"><tspan
         sodipodi:role="line"
         id="tspan3104"
         x="-68.768288"
         y="122.94765">249</tspan></text>
  </g>
</svg>
